<svg version="1.2" xmlns="http://www.w3.org/2000/svg" viewBox="0 0 1681 841" width="1681" height="841"><style>.s0{fill:#90cb45}.s1{fill:#076550}</style><path class="s0" d="m390.3 451.8l59.4 181.7l-171.5-112.2l-171.6 112.2l59.6-181.7l-164.9-111.8h202.5l74.4-337.6l74.4 337.6h203.3z" /><path class="s1" d="m798.4 414.2c-41.5-12.8-74.8-19.2-100.4-19.2c-31.1 0-46.5 10.3-46.5 31.2c0 11.5 7.7 20.1 23.5 25.6c7.2 2.6 23 6.4 47.4 11.1c33.7 6.8 58.5 16.2 74.3 28.6q24.3 18.6 24.3 56.4c0 61-46.1 92.6-119.1 92.6c-41.4 0-82.9-8.1-123.8-24.7l14.5-56.8c39.3 15.8 76 24.3 110.6 24.7c36.2 0 54.6-10.2 54.6-30.3c0-9.4-4.7-16.2-11.5-20.9c-3.4-3.4-12.8-6.8-18-8.5c-5.1-2.2-17.9-4.7-23.4-6c-5.2-1.3-20.5-3.9-26.1-5.1c-32.9-6.9-56.8-16.7-71.3-29.1q-21.8-18.5-21.8-55c0-26.9 10.3-48.7 30.8-64.5c20.9-16.2 48.2-24.4 82.8-24.4c40.6 0 78.6 6.4 114 19.7z" /><path class="s1" d="m1001.6 634.1h-61.5v-234h-101.6v-56.3h264.7v56.3h-101.6z" /><path fill-rule="evenodd" class="s1" d="m1137.4 634.1h-69.2l131.9-292h57.2l131.1 292h-68.3l-23.5-53.4h-136.6zm45.7-108h90.5l-45.3-105.4z" /><path fill-rule="evenodd" class="s1" d="m1488.3 545.3v88.8h-61.5v-290.3c45.3-1.7 82.4-2.6 111.9-2.6c73 0 118.7 36.7 118.7 101.2c0 38-20.5 69.6-54.7 88l73.5 103.7h-74.3l-59.8-88.8zm55.5-53.8c30.8 0 53-20.1 53-49.1c0-31.2-21.4-46.1-57.3-46.1c-22.6 0-39.7 0-51.2 0.4v94.8z" /><path fill-rule="evenodd" class="s1" d="m815.6 791.2c9.8 3.8 18.5 5.6 26.1 5.6c7.3 0 10.9-1.6 10.9-4.9c0-3-2.8-4.4-7.1-5.4c-2.2-0.6-3.4-0.8-6.5-1.3l-3.5-0.7c-15.2-2.8-22.1-8.4-22.1-19.3c0-13.4 10.8-21.5 28.1-21.5q14.3 0 27 4.9l-4.2 14.1c-10.3-3-18.1-4.5-23.5-4.5c-5.9 0-9.2 2.2-9.2 5.5c0 3 2.1 4.1 5.9 5.3c2.3 0.5 3.3 0.6 6.6 1.3l3.7 0.7c15.7 3.2 22.3 7.7 22.3 19.2c0 14.3-11.3 21.5-29.1 21.5c-9.9 0-19.6-1.8-29.1-5.6zm-25.5-40.1c6 5.2 9 12 9.1 20.3c0 4.1-0.4 8.4-1.2 13h-44.9c2.5 7.3 8.7 11.1 18.2 11.1c4.6 0 12.2-1.1 22.8-3.4l2.6 14.7c-10.4 3.3-19.1 4.9-25.9 4.9c-12 0-21.1-3.2-27.6-9.5c-6.5-6.4-9.7-14.6-9.7-24.7c0-10.3 3.2-18.5 9.5-24.8c6.5-6.3 14.6-9.4 24.4-9.4c9.1 0 16.7 2.6 22.7 7.8zm-37.8 20h30.3c-0.4-7.9-6.3-13.3-14.8-13.3c-8.1 0-13.8 5.1-15.5 13.3zm-31.7-10.1c-8.3-1.7-14.3-2.6-18.1-2.6c-12.5 0-20.4 7.6-20.4 18.9c0 11.2 7.9 18.5 19.4 18.5q7.4 0 19.3-2.9l2.4 14.8c-8.1 2.7-15.7 4-23.1 4c-10.7 0-19.4-3.1-26.3-9.4c-6.7-6.3-10-14.7-10-25.2c0-10.4 3.3-18.7 10.2-24.9c6.8-6.3 15.6-9.4 26.8-9.4c7.6 0 15.1 1.2 22.4 3.6zm-80-10.7c5 4.4 7.6 10.4 7.6 17.8v41.6h-18.7v-36.1c0-8-5.2-13.3-12.9-13.3c-3.8 0-8.8 0.3-15.1 1v48.4h-18.7v-63.2c14.1-2 26.9-3.1 38.3-3.1c8.1 0 14.6 2.3 19.5 6.9zm-78.8-3.8v63.2h-18.7v-4.6c-5.7 4.5-12.2 6.6-19.3 6.6c-8.9 0-16.5-3.1-22.2-9.4c-5.8-6.3-8.6-14.6-8.6-25.1c0.4-20.7 12.2-33.8 32.2-33.8c8.7 0 20.9 1.1 36.6 3.1zm-50.6 31.3c0 10.8 6.2 18.4 15.7 18.4c5.8 0 11.2-2.2 16.2-6.3v-30.2c-5.7-0.6-10.7-0.8-15-0.8q-16.9 0-16.9 18.9zm-26.7-16.1c-9.2 0-16.9 0.3-22.8 0.8v47.2h-18.6v-62.1c15.3-2.8 29.1-4.2 41.4-4.2zm-62.4 46.7q-18 3.2-38.3 3.2q-26.9 0-26.9-24.5v-41.6h18.6v37.2c0 8.8 4.3 13.3 12.8 13.3c3.8 0 8.8-0.3 15.1-1v-49.5h18.7zm-137-17.1c9.8 3.7 18.5 5.6 26 5.6c7.4 0 11-1.6 11-5c0-2.9-2.8-4.4-7.1-5.3c-2.2-0.7-3.5-0.8-6.5-1.4l-3.5-0.6c-15.2-2.9-22.2-8.5-22.2-19.4c0-13.4 10.9-21.4 28.2-21.4q14.3 0 27 4.8l-4.2 14.1c-10.3-3-18.1-4.4-23.5-4.4c-5.9 0-9.2 2.1-9.2 5.5c0 2.9 2.1 4 5.9 5.2c2.3 0.5 3.3 0.7 6.6 1.3l3.7 0.7c15.7 3.2 22.3 7.8 22.3 19.2c0 14.3-11.3 21.6-29.1 21.6c-10 0-19.6-1.9-29.1-5.6zm-69.1 0c9.8 3.7 18.5 5.6 26 5.6c7.4 0 11-1.6 11-5c0-2.9-2.8-4.4-7.1-5.3c-2.3-0.7-3.5-0.8-6.6-1.4l-3.5-0.6c-15.1-2.9-22.1-8.5-22.1-19.4c0-13.4 10.9-21.4 28.2-21.4q14.3 0 26.9 4.8l-4.1 14.1c-10.3-3-18.1-4.4-23.5-4.4c-5.9 0-9.2 2.1-9.2 5.5c0 2.9 2.1 4 5.9 5.2c2.2 0.5 3.3 0.7 6.5 1.3l3.8 0.7c15.7 3.2 22.2 7.8 22.2 19.2c0 14.3-11.2 21.6-29.1 21.6c-9.9 0-19.5-1.9-29.1-5.7zm-94.1 18.6h-21.7l41.4-91.8h18l41.2 91.8h-21.5l-7.4-16.8h-42.9zm14.4-33.9h28.4l-14.2-33.2z" /><path fill-rule="evenodd" class="s1" d="m1661.4 788.4v-33.7h19.3v34.4c0 14.8-13.1 24.4-34.5 25.5v0.1h-102.7v-0.3c-20.3-1.5-30.8-11.2-30.8-26v-56.9h19.3v56.5c0 7.8 4.3 11.9 17.6 11.9h92.3c13.3 0 19.5-4 19.5-11.5zm-2.8-44.9h-15.5v-16h15.5zm23.2 0h-15.5v-16.1h15.5zm-180.6-19.1v-6.3h6.8v-1.3c0-3.1 1.3-11.8 12.7-11.8c6 0 9.8 2.2 11.9 6.4q-1.2 0.1-8.2 1.2c-1.1-1.2-2.1-1.6-3.4-1.6c-4.5 0-4.5 3.9-4.5 5.7v1.4h17.8v6.3zm-36.3 90.3c-9.6 0-18.1-2.7-23.1-9.5c-3.9 6.2-12 8.8-22 9.4v0.1h-79c-9.6 0-17.4-2.3-23.4-6.3c-5.6 4.2-13.6 6.3-22.9 6.3h-55.7c-9.6 0-17.3-2.3-23.4-6.3c-5.5 4.2-13.6 6.3-22.9 6.3h-128.6v-0.2c-20.2-1.6-30.8-11.3-30.8-26.1v-56.9h19.4v56.5c0 7.8 4.3 11.9 17.6 11.9h122.4c8.1 0 12.6-3.6 12.6-9.2v-36h19.5v36.4c0 5.3 4.6 8.8 14.2 8.8h55.7c8 0 12.5-3.6 12.5-9.2v-35.9h19.5v36.3c0 5.3 4.7 8.8 14.3 8.8h74.7c16.4 0 15.9-12.7 16.4-21.2c1.1-16.9 13.6-28.1 33-28.1c21 0 32.9 12.8 32.9 32.1c0 19.4-11.7 32-32.9 32zm0-50.5c-7.8 0-13 4.6-13 18.8c0 13.4 5.1 18.1 13 18.1c7.9 0 13.1-4.8 13.1-18c0-14.3-5.2-18.9-13.1-18.9zm-164.4 76.4h-17.1v-16h17.1zm24.9 0h-17.1v-16.1h17.1zm-101-97.1h-19.6v-16h19.6zm-239.5 71.1h-28c-21.2 0-33.9-10-33.9-26.4v-33.5h19.3v33.1c0 8.1 3.4 12.1 13.5 12.1h29.1c10 0 14.1-4.1 14.1-12.1v-33.1h19.3v33.5c0 16.2-12.5 26.3-33.4 26.4zm-18.1-71.1h-17.2v-16.1h17.2zm24.9 0h-17.2v-16h17.2z" /></svg>